Coordinates
version=1
nRows=8
nColumns=34
inDegrees=yes

Units are S.I. units (second, meters, Newtons, ...)
If the header above contains a line with 'inDegrees', this indicates whether rotational values are in degrees (yes) or radians (no).

endheader
time	pelvis_tilt	pelvis_list	pelvis_rotation	pelvis_tx	pelvis_ty	pelvis_tz	hip_flexion_r	hip_adduction_r	hip_rotation_r	knee_angle_r	ankle_angle_r	subtalar_angle_r	mtp_angle_r	hip_flexion_l	hip_adduction_l	hip_rotation_l	knee_angle_l	ankle_angle_l	subtalar_angle_l	mtp_angle_l	lumbar_extension	lumbar_bending	lumbar_rotation	arm_flex_r	arm_add_r	arm_rot_r	elbow_flex_r	pro_sup_r	arm_flex_l	arm_add_l	arm_rot_l	elbow_flex_l	pro_sup_l
      3.15000000	    -20.73955050	      9.97830511	     -0.05716131	      2.70323363	      0.86254135	     -0.02300545	      1.19392185	     -7.98437249	    -20.69926315	      4.01267826	     25.19518762	     10.34121098	      0.00000000	     17.30900162	      6.22649523	    -17.52484082	      3.15376602	     22.62436892	      9.66079839	      0.00000000	     15.48930880	    -11.46015543	    -19.89896785	     23.52210047	     -2.77572903	     41.47718469	     35.04824634	     92.44293647	    -40.18529594	      8.74441493	    -31.52762990	     52.66749440	     95.19291553
      3.16666670	    -20.09791408	     10.54068138	     -0.50365464	      2.71281621	      0.86690435	     -0.02236016	      0.64902086	     -8.57334247	    -21.85238073	      3.91699179	     23.57397982	     10.23432184	      0.00000000	     17.63541234	      6.96725377	    -18.92613256	      1.29167002	     20.86038288	     10.09297083	      0.00000000	     14.89062694	    -12.20816225	    -19.08082173	     23.22977852	     -2.69114940	     41.36742194	     35.00102175	     92.24191852	    -40.07217384	      8.47194535	    -31.41734921	     51.76444742	     95.17638751
      3.18333330	    -19.17123335	     10.75561716	     -0.81333395	      2.73501766	      0.86803092	     -0.02430135	     -0.53881186	     -8.81213850	    -22.74194916	      3.86513989	     21.79290479	      9.45404746	      0.00000000	     16.85938323	      7.51112044	    -21.87790472	      0.00000000	     20.48265679	     13.07043510	      0.00000000	     14.55694366	    -12.06483389	    -17.66645264	     22.17292331	     -2.98248536	     39.48801987	     35.06433530	     90.84655559	    -38.94729607	      7.33388337	    -29.93147161	     47.38340594	     95.03666068
      3.20000000	    -18.50591566	     11.06638438	     -1.12166399	      2.74543924	      0.87002730	     -0.02423492	     -1.56060580	     -9.24767348	    -23.74957500	      3.99937091	     20.19604716	      8.78517681	      0.00000000	     16.53352786	      7.97336874	    -23.85736988	      0.00000000	     20.53646461	     14.45978708	      0.00000000	     14.57618668	    -12.40659292	    -16.78008347	     21.17959495	     -3.15699654	     38.64515348	     35.00824689	     90.18052557	    -38.90415801	      7.01306587	    -29.44047828	     45.51107101	     94.74745270
      3.21666670	    -18.29608114	     11.22174057	     -0.91120945	      2.75908086	      0.86692235	     -0.02621393	     -2.47097419	     -9.58760352	    -24.75676128	      4.20254828	     18.79087164	      8.51224509	      0.00000000	     15.92660232	      8.53535638	    -24.60410086	      0.00000000	     20.02702297	     15.02770330	      0.00000000	     15.29326256	    -12.77581294	    -16.45337467	     20.02426376	     -3.42007451	     38.47905864	     34.82577282	     90.00819587	    -39.54894060	      7.01594184	    -29.37476057	     44.64068665	     94.63432715
      3.23333330	    -17.93792052	     10.97552288	     -1.18088199	      2.75064996	      0.86591131	     -0.02610579	     -3.23689121	     -9.51994311	    -24.87939221	      4.44351831	     17.24463381	      6.85515632	      0.00000000	     15.21067187	      8.52390930	    -25.86384385	      0.00000000	     20.56173168	     16.90994628	      0.00000000	     15.56945822	    -12.39407694	    -15.84765013	     19.13805734	     -3.65794143	     37.68411212	     34.91430240	     89.40802322	    -39.11664607	      6.46444029	    -28.76911225	     42.45593470	     94.33119988
      3.25000000	    -17.64879296	     10.41655721	     -1.12180505	      2.76356823	      0.85996123	     -0.03045071	     -3.58859210	     -9.20351252	    -25.39314437	      5.19674249	     16.45608289	      6.39490127	      0.00000000	     13.75701736	      8.39852888	    -25.39761922	      0.00000000	     20.16724645	     17.35404730	      0.00000000	     15.87120951	    -11.84177695	    -15.84504278	     18.32976197	     -3.95420083	     37.61681245	     34.78739307	     89.28076639	    -39.43807575	      6.46706508	    -28.59800687	     42.06918057	     94.25326112
      3.26666670	    -17.38167183	      9.65431858	     -1.21461767	      2.77123710	      0.86160384	     -0.03180719	     -4.18388850	     -8.61877927	    -25.09345851	      5.62437204	     14.46510529	      4.48502333	      0.00000000	     12.01761373	      7.97879149	    -24.50925092	      0.00000000	     19.67767392	     16.90351156	      0.00000000	     15.92639965	    -11.10931650	    -16.10134583	     17.38213356	     -4.35525112	     37.28724567	     35.07552919	     88.69315636	    -39.38046906	      6.21318329	    -27.58397678	     40.91855148	     93.96328833
